<svg width="200" height="200" viewBox="0 0 200 200" fill="none" xmlns="http://www.w3.org/2000/svg">
<g clip-path="url(#clip0_12_221)">
<path d="M138.867 0.390625C130.977 1.64062 123.789 5.58594 118.828 11.4453C116.406 14.2578 113.281 20.4297 112.227 24.4141C111.68 26.6016 111.523 28.5547 111.563 34.1797C111.602 40.4297 111.68 41.6016 112.578 44.9609C113.867 49.6875 116.25 55.4688 118.555 59.2578C119.531 60.8984 120.313 62.3438 120.313 62.5C120.313 62.6562 93.711 88.9844 61.25 121.055C16.6406 165.039 1.87502 179.805 1.05471 181.328C-1.17185 185.43 -0.15623 188.633 5.00002 193.789C7.92971 196.719 8.71096 197.266 10.625 197.852C13.0078 198.516 14.9219 198.398 16.9922 197.383C17.6563 197.07 20.5469 194.453 23.4375 191.562L28.711 186.328L35.5469 193.164C39.2969 196.914 42.6563 200 42.9688 200C43.2813 200 45.3125 198.242 47.461 196.094L51.3282 192.188L55.1563 195.938C57.2266 198.008 59.2188 199.609 59.5313 199.531C60.4297 199.336 69.1407 190.664 69.1407 189.961C69.1407 188.984 53.5157 173.438 52.5782 173.438C52.1094 173.438 50.5469 174.688 48.8282 176.367L45.8594 179.297L43.4375 176.836L41.0157 174.414L50.3907 165.039L59.7657 155.664L62.1094 158.008C63.3985 159.297 64.4532 160.508 64.4532 160.703C64.4532 160.898 63.125 162.305 61.5235 163.828C59.8438 165.43 58.5938 166.914 58.5938 167.344C58.5938 168.438 74.1407 183.984 75.1953 183.984C76.1328 183.984 84.7657 175.508 84.7657 174.609C84.7657 174.258 83.2032 172.422 81.25 170.508C79.2969 168.594 77.7344 166.797 77.7344 166.562C77.7344 166.328 79.4922 164.453 81.6407 162.422C83.7891 160.391 85.5469 158.477 85.5469 158.203C85.5469 157.891 82.461 154.57 78.6719 150.781L71.836 143.867L104.531 111.602L137.188 79.3359L138.828 80.4297C148.75 87.1484 162.383 90.3906 172.969 88.5156C184.648 86.4844 193.789 79.0234 197.695 68.3594C202.695 54.6484 199.297 38.125 188.555 23.5547C185.781 19.8438 178.945 13.125 175.117 10.4297C168.867 5.97656 161.094 2.5 153.867 0.9375C150.391 0.195312 142.109 -0.117188 138.867 0.390625ZM156.172 15.9766C162.539 17.8125 168.047 21.1719 173.281 26.3672C186.563 39.4531 189.18 58.1641 179.141 68.125C177.813 69.4531 175.859 70.9766 174.727 71.6016C170.234 74.0234 163.711 74.8047 157.734 73.6719C154.688 73.0859 149.141 71.0938 147.813 70.1562C147.109 69.6094 147.148 69.4922 148.906 67.6953C151.133 65.4297 151.953 63.5938 151.953 60.9375C151.953 58.0078 151.133 56.5234 147.539 52.8516C144.102 49.2969 142.891 48.4766 140.43 48.0078C137.617 47.5 135.391 48.2422 132.773 50.6641C131.484 51.875 130.352 52.7734 130.273 52.6562C129.609 52.0312 127.578 46.6797 126.914 43.8672C125.938 39.6875 125.859 33.9453 126.758 30.4297C128.711 22.8906 134.336 17.3047 141.992 15.3516C144.883 14.6094 152.578 14.9609 156.172 15.9766ZM123.555 88.3594L120.508 91.4062L115.313 86.25C112.461 83.3984 109.727 80.5469 109.297 79.9609L108.477 78.8281L111.367 75.9375L114.258 73.0469L120.391 79.1797L126.563 85.3516L123.555 88.3594ZM88.9063 122.5C77.3828 133.867 67.9688 143.438 67.9688 143.75C67.9688 144.062 71.0547 147.383 74.8047 151.172L81.6407 158.047L77.7344 161.914C75.3907 164.258 73.8282 166.133 73.8282 166.602C73.8282 167.031 75.2735 168.828 77.3828 170.938L80.9766 174.531L78.125 177.188C76.5625 178.672 75.1563 179.883 75 179.883C74.8438 179.883 71.9922 177.07 68.6328 173.594L62.5391 167.305L65.4688 164.414C67.1875 162.734 68.3594 161.211 68.3594 160.742C68.3594 159.688 60.5078 151.836 59.6485 152.031C58.5157 152.266 37.1094 173.438 37.1094 174.297C37.1094 175.195 44.1797 182.656 45.3907 183.047C45.8985 183.203 46.9922 182.461 49.336 180.312L52.5782 177.383L58.9063 183.711L65.2344 190.039L62.4219 192.852L59.6094 195.664L55.8203 191.992C53.75 189.961 51.836 188.281 51.5625 188.281C51.2891 188.281 49.2578 190.078 47.0313 192.227L43.0078 196.211L36.5235 189.531C32.9688 185.859 29.6875 182.734 29.2188 182.578C28.5547 182.383 27.6172 183.125 24.2578 186.406C15.0391 195.391 14.8047 195.547 11.7578 194.883C9.9219 194.492 4.06252 188.672 3.43752 186.602C2.46096 183.359 2.09919e-05 185.977 50.8985 135.742L97.8516 89.375L103.828 95.5859L109.805 101.758L88.9063 122.5Z" fill="gray"/>
</g>
<defs>
<clipPath id="clip0_12_221">
<rect width="200" height="200" fill="white"/>
</clipPath>
</defs>
</svg>
