<svg width="200" height="200" viewBox="0 0 200 200" fill="none" xmlns="http://www.w3.org/2000/svg">
<path d="M37.5781 0.468746C36.875 1.17187 36.9922 1.67968 38.8672 6.05468C42.8906 15.2344 44.7265 22.7734 44.4531 28.9062C44.3359 32.2266 44.1406 32.9687 42.8906 35.5469C42.1484 37.1484 40 40.5078 38.125 42.9687C34.4531 47.8906 31.6797 53.0859 30.5859 57.0312C30.0781 58.9062 29.8828 61.1328 29.8828 65.6641L29.8437 71.7578L28.4375 73.6719C21.3672 83.4766 16.875 95.7812 16.1719 107.227C15.5469 117.852 18.5938 131.484 24.2578 143.359C26.875 148.789 27.6172 149.766 29.8828 150.82C32.1094 151.836 34.4922 151.719 38.4766 150.391C42.6172 148.984 43.9844 148.945 45.7422 150.117C46.7969 150.82 47.3047 151.68 48.3594 154.492C53.3594 168.203 55.7812 172.969 59.2968 176.172C61.5234 178.203 65.4687 180.547 68.0859 181.406C68.6718 181.602 68.75 182.266 68.75 188.398V195.195L69.8828 196.758C71.6406 199.18 75.0781 200.43 78.2812 199.844C79.0234 199.687 80.5468 198.984 81.6015 198.242C82.6953 197.539 83.6718 197.109 83.8281 197.305C83.9453 197.5 84.9609 198.125 86.0546 198.711C87.7343 199.57 88.5937 199.766 91.2109 199.766C94.4921 199.805 95.9765 199.375 98.5546 197.734L99.9999 196.758L101.484 197.734C104.023 199.375 105.508 199.805 108.789 199.766C111.406 199.766 112.266 199.57 113.945 198.711C115.039 198.125 116.055 197.5 116.172 197.305C116.328 197.109 117.305 197.539 118.398 198.242C119.453 198.984 120.976 199.687 121.719 199.844C124.922 200.43 128.359 199.18 130.117 196.758L131.25 195.195V188.398C131.25 182.266 131.328 181.602 131.953 181.406C134.375 180.625 138.672 178.086 140.781 176.133C144.219 172.969 146.68 168.086 151.641 154.492C152.695 151.68 153.203 150.82 154.258 150.117C156.016 148.945 157.383 148.984 161.523 150.391C165.508 151.719 167.891 151.836 170.117 150.82C172.383 149.805 173.125 148.789 175.547 143.75C179.297 135.859 181.523 128.945 183.086 120.312C184.101 114.648 183.984 104.57 182.851 99.2578C181.016 90.8594 177.773 83.1641 173.008 75.9766L170.195 71.6797L170.117 65.625C170.117 61.1719 169.922 58.9062 169.414 57.0312C168.398 53.2812 165.586 47.9687 162.461 43.75C156.406 35.7031 155.469 33.4766 155.469 27.6172C155.508 21.875 157.422 14.5703 161.172 5.9375C163.008 1.71875 163.125 0.937496 162.031 0.273434C160.586 -0.664066 153.594 3.67187 149.141 8.28125C144.766 12.7344 142.344 18.2031 141.094 26.5625L140.781 28.7109L140.312 26.6406C140.039 25.5078 139.844 23.6328 139.844 22.4609C139.844 16.1328 137.148 17.0703 131.758 25.2734C127.891 31.1719 126.172 36.0156 126.172 41.0937C126.172 42.5781 126.094 43.75 125.976 43.75C125.859 43.75 123.437 43.3203 120.586 42.8125C113.359 41.4844 108.008 41.0156 99.9999 41.0156C91.9921 41.0156 86.6406 41.4844 79.414 42.8125C76.5625 43.3203 74.1406 43.75 74.0234 43.75C73.9062 43.75 73.8281 42.5781 73.8281 41.1328C73.8281 36.1719 72.0312 31.0547 68.2422 25.2734C65.3125 20.8594 63.0468 18.3594 61.914 18.3594C60.625 18.3594 60.3125 19.1797 60.039 23.2422C59.9218 25.1562 59.6484 27.1875 59.4531 27.6953C59.1406 28.5156 59.0625 28.3984 58.8672 26.5234C58.3984 22.7734 56.9922 17.8516 55.4297 14.5703C53.0078 9.53125 47.3828 4.21875 41.1328 1.01562C38.8672 -0.117191 38.2422 -0.195316 37.5781 0.468746ZM44.4922 6.79687C46.9531 8.63281 50.8203 12.7344 52.0703 14.8437C54.2578 18.6328 56.25 27.3437 56.25 33.125C56.25 36.7578 57.7344 37.8125 59.5312 35.4297C60.8984 33.6328 61.7187 31.6016 62.6953 27.5391L63.5156 24.0234L64.9609 25.9766C66.914 28.6719 69.3359 33.7109 70.0781 36.5625C70.8593 39.5703 70.8984 44.7266 70.1562 48.5156C69.8437 50.0781 68.789 54.1797 67.7734 57.6172C65.625 65.0391 65.2343 68.5937 66.1718 72.1875C66.9531 75.3125 68.5156 78.5156 70.1562 80.3906C71.2109 81.5625 71.5625 81.7578 72.1093 81.4062C72.9687 80.8984 73.2031 80.4687 73.9843 77.6562C74.9218 74.4141 76.7578 71.9531 79.6484 70C81.0156 69.1016 82.2265 68.3984 82.3046 68.5156C82.3828 68.5937 82.0703 70.1172 81.6406 71.9141C80.5468 76.1719 80.5078 80.6641 81.5625 83.5937C81.9921 84.7656 83.3984 88.0078 84.6875 90.8203C87.8906 97.6953 88.4375 99.7656 88.3984 104.297C88.3984 107.383 88.164 108.633 87.1484 111.719C86.0546 114.922 83.0078 120.703 82.0703 121.25C81.875 121.367 81.875 120.703 82.0703 119.805C82.9296 115.312 82.0703 108.594 80.039 104.609C79.5703 103.672 78.0078 101.094 76.5234 98.8281C73.3984 93.9844 72.4218 91.9141 72.0703 89.1797C71.7968 86.9531 71.1328 86.1328 69.9609 86.5234C69.4531 86.6797 68.75 87.8906 67.7734 90.5469C66.9531 92.6172 66.1328 94.4922 65.9765 94.7266C65.0781 95.6641 59.375 88.3984 57.9687 84.5703C56.7969 81.25 56.9922 75.1953 58.5547 68.5547C60.1562 61.6797 60.4687 57.3437 59.6093 53.9062C58.2031 48.4375 53.7109 41.0156 51.7578 41.0156C50.5469 41.0156 50 42.2266 50 44.8437C50 47.8125 49.0234 51.1328 45.9375 58.7109C42.5781 66.9922 41.9922 68.8672 41.4062 73.0859C40.5859 79.1406 41.7969 83.8672 46.7187 93.5937C48.8672 97.8906 49.9609 100.547 50.1562 101.914C50.3906 103.75 49.8047 108.984 49.3359 108.984C49.2187 108.984 48.5547 108.633 47.8906 108.242C44.7265 106.289 38.2422 105.586 37.9687 107.148C37.8906 107.578 38.2812 108.906 38.8281 110.156C39.8828 112.5 40.3125 115.156 40.9765 123.164C41.25 126.211 41.6406 128.359 42.1875 129.531L42.9687 131.328L41.875 130.664C38.0859 128.242 36.0156 125.781 34.7266 122.031C33.9844 120.039 33.8672 118.711 33.8281 112.109C33.75 104.961 33.6719 104.297 32.6562 101.406C32.1094 99.7266 31.4453 98.0078 31.25 97.6172C30.8594 96.9531 30.9375 96.9141 32.5 97.5C33.4375 97.8125 35.2344 98.7891 36.5625 99.6094C39.1016 101.289 39.8828 101.484 40.625 100.586C40.9765 100.156 40.664 98.8281 38.9453 93.8672C34.7266 81.7187 32.5 70.4297 32.9687 63.4766C33.3984 56.6016 35.1172 52.4609 40.625 44.9219C42.6172 42.2266 44.6094 39.3359 45.1172 38.4766C49.0625 31.6797 48.4375 21.6016 43.2422 8.08593C42.6953 6.64062 42.3047 5.46875 42.4609 5.46875C42.5781 5.46875 43.4765 6.05468 44.4922 6.79687ZM156.758 8.08593C153.867 15.6641 152.305 22.5 152.266 27.8906C152.266 34.2578 153.398 36.8359 160.312 46.2891C164.805 52.3828 166.68 57.1484 167.07 63.6328C167.5 70.4297 165.195 81.875 161.055 93.8672C159.336 98.8281 159.023 100.156 159.375 100.586C160.117 101.484 160.898 101.289 163.437 99.6094C164.766 98.7891 166.562 97.8125 167.5 97.5C169.062 96.9141 169.141 96.9531 168.75 97.6172C168.555 98.0078 167.891 99.7266 167.344 101.406C166.328 104.297 166.25 104.961 166.172 111.953C166.133 118.477 166.016 119.766 165.273 121.992C164.258 125.039 162.422 127.539 159.883 129.375C157.07 131.406 156.992 131.445 157.851 129.531C158.359 128.359 158.75 126.172 159.023 123.164C159.687 115.156 160.117 112.5 161.172 110.156C161.719 108.906 162.109 107.578 162.031 107.148C161.758 105.586 155.273 106.289 152.109 108.242C151.445 108.633 150.781 108.984 150.664 108.984C150.234 108.984 149.57 103.75 149.805 102.031C149.961 100.898 151.289 97.6562 153.32 93.5547C157.07 85.9375 158.086 83.1641 158.633 78.9062C159.336 73.2812 158.476 69.5703 153.867 58.2031C151.719 52.8906 150.664 49.6875 150.391 47.6562C149.375 40.7812 149.492 41.2109 148.359 41.0937C147.461 40.9766 147.031 41.3281 145.469 43.4375C143.242 46.4453 141.25 50.5469 140.391 53.9062C139.531 57.3047 139.805 61.6016 141.406 68.5547C143.555 78.0469 143.398 82.1094 140.742 87.1875C139.414 89.7266 135.117 94.9219 134.336 94.9219C133.945 94.9219 133.633 94.2578 131.875 89.5703C130.273 85.3906 128.437 85.1953 127.93 89.1797C127.578 91.9141 126.601 93.9844 123.476 98.8281C121.992 101.094 120.43 103.672 119.961 104.609C117.93 108.594 117.07 115.312 117.93 119.844C118.125 120.742 118.203 121.484 118.086 121.484C118.008 121.484 117.187 120.312 116.25 118.828C113.047 113.906 111.562 109.219 111.562 103.906C111.562 99.7656 112.187 97.6562 115.625 90.0391C117.07 86.7969 118.516 83.4766 118.789 82.6172C119.492 80.3125 119.336 75.6641 118.359 71.9141C117.93 70.1172 117.617 68.5937 117.695 68.5156C118.125 68.0859 122.734 71.6406 123.789 73.2031C124.961 74.9219 126.289 77.9687 126.719 80.1562C127.031 81.6406 128.32 81.9531 129.57 80.8203C131.055 79.375 133.594 73.9453 134.101 70.9766C134.687 67.5781 134.141 64.0234 132.07 57.0703C129.258 47.8125 128.594 41.5234 129.883 36.5625C130.625 33.75 133.125 28.5937 135.078 25.9766L136.484 24.0234L136.836 25.7812C137.891 31.0937 140.312 36.3281 141.836 36.6406C143.086 36.875 143.75 35.625 143.75 33.125C143.75 29.6094 144.844 22.8516 145.937 19.5312C147.187 15.8203 148.476 13.6328 150.937 10.9766C152.93 8.86718 156.992 5.46875 157.5 5.46875C157.656 5.46875 157.305 6.64062 156.758 8.08593ZM114.258 44.9219C117.187 45.3125 124.453 46.6797 125.82 47.1094C126.211 47.2266 126.601 48.125 126.875 49.7266C127.109 51.0547 128.164 54.9609 129.141 58.3984C131.328 65.9766 131.601 69.7656 130.117 73.5156C129.648 74.7656 129.141 75.7812 128.984 75.7812C128.828 75.7812 128.359 74.9609 127.969 73.9062C126.328 69.9219 118.945 64.4141 115 64.2969C112.812 64.2187 112.578 65 113.828 68.0469C115.469 72.1484 116.094 75.5859 115.937 79.1016C115.781 81.9922 115.547 82.6953 113.125 87.8906C108.672 97.4219 107.734 101.406 108.516 107.031C110.43 120.625 120.351 131.367 134.961 135.781C139.57 137.148 147.539 137.539 151.758 136.562C157.969 135.078 164.531 130.664 166.875 126.289C168.945 122.5 169.336 120.312 169.258 113.398C169.141 106.172 169.687 103.359 172.031 98.2031C173.594 94.8828 173.711 94.0625 172.851 93.3594C172.187 92.8125 169.648 93.2422 166.367 94.4922C165.234 94.9219 164.258 95.2344 164.219 95.1953C164.141 95.1562 164.883 92.5781 165.859 89.4531C166.797 86.3672 167.93 82.1484 168.359 80.1172C168.828 78.0469 169.258 76.3281 169.297 76.25C169.531 76.0156 172.539 81.0156 174.297 84.6094C177.812 91.6016 179.805 98.3203 180.508 105.664C181.562 116.367 178.633 130 172.656 142.383C169.492 148.984 168.594 149.375 162.305 147.266C156.836 145.43 153.867 145.742 151.25 148.516C150.312 149.531 149.375 151.406 147.851 155.586C142.578 170.039 140.508 173.281 134.57 176.758C132.148 178.164 130.976 178.359 130.664 177.383C130.273 176.055 128.516 174.258 126.914 173.437C124.922 172.383 121.914 172.422 119.844 173.477C118.555 174.141 118.203 174.18 117.93 173.75C117.734 173.477 117.578 173.125 117.578 172.969C117.578 172.305 114.609 169.414 113.125 168.633C111.875 167.969 110.82 167.773 108.594 167.773C105.273 167.773 103.828 168.359 101.484 170.625L99.9999 172.031L98.5546 170.625C96.1718 168.359 94.7265 167.773 91.4062 167.773C89.1796 167.773 88.125 167.969 86.875 168.633C85.3906 169.414 82.4218 172.305 82.4218 172.969C82.4218 173.125 82.2656 173.477 82.0703 173.75C81.7968 174.18 81.4453 174.141 80.1562 173.477C78.0859 172.422 75.0781 172.383 73.0859 173.437C71.4843 174.258 69.7265 176.055 69.3359 177.383C68.9843 178.398 67.8515 178.164 64.8437 176.445C61.7187 174.648 59.2578 172.031 57.5 168.516C55.9375 165.352 52.1875 156.172 50.9765 152.383C50.1953 150 48.0469 147.383 46.2109 146.602C44.2187 145.781 41.4453 145.977 37.6953 147.266C31.4062 149.375 30.5469 148.984 27.3437 142.383C21.4063 130.156 18.4375 116.367 19.4922 105.664C20.3906 96.4062 23.7109 86.9922 28.9844 78.6328L30.625 76.0156L30.9375 77.1484C31.0937 77.8125 31.6797 80.2344 32.2266 82.5391C32.8125 84.8437 33.8672 88.6328 34.5703 90.9375C35.3125 93.2031 35.8594 95.1172 35.7812 95.1953C35.7422 95.2344 34.7656 94.9219 33.6328 94.4922C30.3516 93.2422 27.8125 92.8125 27.1484 93.3594C26.2891 94.0625 26.4062 94.8828 27.9687 98.2031C30.3125 103.359 30.8594 106.172 30.7422 113.398C30.6641 120.312 31.0547 122.5 33.125 126.289C35.5078 130.703 42.1094 135.156 48.2422 136.523C52.6953 137.539 60.3515 137.187 65.039 135.781C79.6484 131.367 89.5703 120.625 91.4843 107.031C92.2656 101.406 91.3281 97.4219 86.875 87.8906C84.4531 82.6953 84.2187 81.9922 84.0625 79.1016C83.9062 75.5859 84.5312 72.1484 86.1718 68.0469C87.4218 65 87.1875 64.2187 85 64.2969C81.0546 64.4141 73.6718 69.9219 72.0312 73.9062C71.6406 74.9609 71.1718 75.7812 71.0547 75.7812C70.5859 75.7812 69.5312 72.9687 69.1015 70.5469C68.5547 67.5781 69.0625 64.1797 71.0937 57.6562C71.7187 55.5469 72.5781 52.3437 72.9297 50.5469L73.5937 47.3047L76.9531 46.5234C79.9218 45.8594 86.1328 44.8828 90.8203 44.375C93.6328 44.1016 111.055 44.4922 114.258 44.9219ZM94.0234 171.289C95.9765 172.109 96.8359 172.93 97.6953 174.805C98.3203 176.172 98.4374 177.461 98.4374 185C98.4374 193.437 98.4374 193.633 97.5781 194.414C94.1406 197.539 87.9296 197.422 85.039 194.219C84.375 193.516 84.3359 192.695 84.4531 184.492L84.5703 175.508L85.625 173.945C87.4609 171.133 90.9765 170.039 94.0234 171.289ZM111.641 171.523C112.656 172.031 113.75 173.008 114.375 173.945L115.43 175.508L115.547 184.492C115.664 192.695 115.625 193.516 114.961 194.219C112.07 197.422 105.859 197.539 102.461 194.414C101.562 193.633 101.562 193.437 101.562 185.078C101.562 174.492 101.953 173.125 105.664 171.445C107.734 170.508 109.531 170.508 111.641 171.523Z" fill="gray"/>
<path d="M96.836 127.422C90.3125 135.273 84.9219 146.523 84.4922 153.359C84.2578 156.992 84.8047 158.555 86.836 159.766C89.375 161.328 94.4532 160.391 98.4375 157.617L99.9219 156.602L101.914 157.852C104.805 159.609 107.539 160.547 109.805 160.547C113.672 160.547 115.625 158.516 115.625 154.453C115.625 147.969 109.805 135.352 103.164 127.422C101.523 125.508 100.859 125 100 125C99.1407 125 98.4766 125.508 96.836 127.422ZM102.93 132.305C105.664 135.977 110 144.297 111.367 148.438C112.539 151.992 112.813 155.898 111.914 156.758C110.547 158.125 107.227 157.383 103.008 154.727C101.641 153.828 100.273 153.125 100 153.125C99.7266 153.125 98.3594 153.828 96.9922 154.727C92.7735 157.383 89.4532 158.125 88.086 156.758C87.5391 156.211 87.461 155.586 87.6172 153.555C87.8516 150.156 88.9453 146.953 91.9922 140.82C94.375 135.977 99.1407 128.906 100 128.906C100.234 128.906 101.523 130.43 102.93 132.305Z" fill="gray"/>
</svg>
