<svg width="200" height="200" viewBox="0 0 200 200" fill="none" xmlns="http://www.w3.org/2000/svg">
<path d="M101.25 3.43751C100.977 3.63282 100.43 5.23439 100.039 7.07032C99.5313 9.37501 99.2188 10.1172 99.0235 9.57032C98.5157 8.08595 98.1641 7.6172 97.422 7.50001C96.2501 7.34376 1.05478 30.8594 0.429776 31.4453C-0.0780361 31.9531 2.53915 42.8906 19.961 113.75C31.4454 160.547 40.3126 195.781 40.6641 196.25C41.3673 197.07 38.0079 197.852 94.2188 183.984L111.25 179.766L137.344 185.391C155.352 189.219 163.633 190.859 164.102 190.625C164.453 190.43 164.844 189.844 164.961 189.375C165.078 188.867 173.047 151.68 182.656 106.719C198.086 34.5313 200.039 24.8828 199.531 24.375C199.18 24.0234 193.399 22.6172 185.508 20.8984C139.258 10.9766 102.305 3.12501 101.992 3.12501C101.875 3.12501 101.524 3.28126 101.25 3.43751ZM111.719 8.39845C115.469 9.21876 118.672 9.96095 118.828 10.1172C119.258 10.5078 116.758 16.3281 115.117 18.8281C112.305 23.0078 105.547 28.2813 103.789 27.6172C103.516 27.5391 102.774 25.2734 102.149 22.6563L101.016 17.8906L102.109 12.5781C102.695 9.60939 103.281 7.07032 103.399 6.91407C103.516 6.75782 103.867 6.6797 104.219 6.79689C104.609 6.87501 107.969 7.6172 111.719 8.39845ZM96.0938 11.0938C96.0938 11.1719 104.883 46.9922 115.625 90.6641C126.367 134.336 135.156 170.195 135.156 170.352C135.156 170.508 125 173.125 112.617 176.172C100.195 179.219 79.4923 184.336 66.6016 187.5C53.711 190.703 43.047 193.164 42.8907 193.047C42.5782 192.695 3.51571 33.8672 3.71103 33.6328C3.82821 33.5547 7.96884 32.4609 12.9688 31.25C17.9688 30 37.9688 25.0781 57.422 20.3125C76.8751 15.5078 93.3204 11.4844 93.9454 11.3281C95.3516 10.9766 96.0938 10.8984 96.0938 11.0938ZM196.289 26.6016C196.524 26.875 192.188 47.3828 191.797 47.7734C191.289 48.3203 188.242 46.5234 186.289 44.4922C183.984 42.1484 181.836 37.8516 181.055 34.1797C180.469 31.3672 180.274 26.4063 180.703 24.3359L180.938 23.2031L188.516 24.8047C192.656 25.7031 196.172 26.5234 196.289 26.6016ZM142.227 71.2891C142.969 78.7109 143.633 83.5938 143.945 83.9063C144.219 84.2188 149.649 85.5469 156.055 86.9141C162.461 88.3203 167.891 89.4922 168.086 89.5703C168.32 89.6484 163.594 91.875 157.578 94.5313C151.602 97.1875 146.367 99.6484 145.977 100C145.313 100.625 145.313 101.094 146.484 112.109C147.149 118.398 147.656 123.906 147.578 124.297C147.5 124.883 145.391 122.773 139.531 116.25C135.156 111.406 131.289 107.266 130.938 107.07C130.43 106.797 129.414 107.07 127.227 108.047C125.547 108.789 124.024 109.375 123.828 109.375C123.477 109.375 115.859 78.9063 116.172 78.6328C116.289 78.5156 118.828 78.9844 121.875 79.6484C124.883 80.2734 127.617 80.7422 127.891 80.625C128.203 80.5078 131.211 75.5859 134.609 69.7266C138.008 63.8281 140.82 59.0625 140.899 59.1016C140.938 59.1797 141.524 64.6484 142.227 71.2891ZM166.602 166.484C166.484 166.992 165.469 171.836 164.297 177.266C163.125 182.734 162.109 187.227 162.031 187.266C161.836 187.422 146.953 184.219 146.68 183.945C146.328 183.555 148.281 178.711 149.805 176.211C153.672 169.844 159.531 165.859 165.352 165.664C166.68 165.625 166.797 165.703 166.602 166.484Z" fill="gray"/>
<path d="M79.1407 25.4687C77.6954 26.2891 73.2813 36.9531 72.2657 42.1094L71.797 44.4141L69.7657 45.0391C66.836 45.9766 64.0235 45.8985 62.6954 44.8828C62.0704 44.336 60.5469 41.7969 58.7891 38.125C54.9219 30.1172 52.8907 28.125 48.5157 28.125C45.6641 28.125 42.9297 29.6484 41.0157 32.3047C39.2188 34.8047 38.2032 37.3828 36.8751 42.5391C36.3672 44.5703 35.8594 46.2891 35.7813 46.3672C35.7032 46.4844 34.6876 45.7031 33.5938 44.7266C30.2735 41.7578 25.8985 38.6719 25.0391 38.6719C23.3594 38.6719 23.3594 39.8828 25 44.7266C26.836 50.0391 28.9063 54.2578 31.4063 57.9297C32.3829 59.375 33.2032 60.7032 33.2032 60.8985C33.2032 61.0938 32.8516 61.4063 32.4219 61.5235C31.1329 61.9532 27.8907 65.3907 26.836 67.4219C24.5313 72.0704 24.375 77.6954 26.4844 82.1876C28.1641 85.7423 29.1797 86.9923 36.7188 94.7266C45.0001 103.164 45.5469 104.141 45.4688 110.352C45.4297 113.906 45.0391 116.406 43.3594 124.609C40.9376 136.406 40.4297 142.735 41.5626 146.641C42.5391 149.961 45.3907 152.774 49.0235 153.867C50.4688 154.336 52.461 154.688 53.4766 154.688H55.3516L54.6485 159.414C53.9454 164.414 53.9844 165.078 55.0001 165.391C56.4454 165.86 63.3594 166.719 63.8673 166.524C64.4532 166.328 64.6094 165.938 65.0391 163.75L65.3126 162.461L67.3048 165.117C71.7579 171.094 76.836 175 80.9376 175.586C84.336 176.094 88.9063 174.063 91.0157 171.133C92.461 169.102 93.3595 165.86 93.9454 160.43C94.6485 154.492 95.2735 152.227 96.797 150.43L97.8517 149.141L100.391 152.695C101.797 154.649 103.242 156.328 103.633 156.485C104.375 156.719 108.672 154.024 111.016 151.875C112.344 150.625 112.305 150.508 109.336 146.445C108.281 145 107.422 143.672 107.422 143.516C107.422 143.32 108.516 142.344 109.844 141.406C112.734 139.297 115.391 135.82 116.25 133.086C117.109 130.274 117.383 123.438 116.836 119.531C116.211 115.469 114.766 110.352 113.359 107.461C112.617 105.938 110.742 103.633 107.031 99.8048C98.8673 91.3282 98.3204 89.8438 97.6954 73.8282C97.2657 62.4219 96.4845 58.2032 93.9063 53.5938C92.2267 50.586 87.8517 46.0938 84.8438 44.336L82.8126 43.1641V39.0625C82.8126 35.4297 82.0313 28.3984 81.4063 26.4453C81.0938 25.4687 80.0001 25 79.1407 25.4687ZM50.8204 31.8359C52.4219 32.6953 53.8282 34.8047 55.8594 39.2969C58.1251 44.4531 60.0001 47.2266 61.7969 48.125C63.3985 48.9453 67.2657 49.1406 69.4923 48.4766C70.2345 48.2422 70.9376 48.125 71.0157 48.2422C71.1329 48.3594 66.6016 80.0391 65.7423 84.6876C65.5469 85.7813 65.4298 85.8985 65.0001 85.4688C64.7266 85.1954 58.6719 76.9922 51.5626 67.2266L38.6329 49.4531L39.4532 45.3906C41.6407 34.375 45.8985 29.3359 50.8204 31.8359ZM79.6876 39.0625C79.7266 42.3828 78.9845 48.2031 75.8985 69.0235C73.7891 83.2813 71.9923 94.922 71.8751 94.922C71.4454 94.8829 68.3595 90.1954 68.3595 89.5313C68.3595 87.8907 75.1173 43.6328 75.7813 40.9766C76.172 39.3359 77.0704 36.6016 77.7735 34.9219L79.0626 31.8359L79.3751 33.3984C79.5313 34.2578 79.6485 36.7969 79.6876 39.0625ZM33.5938 49.1797C36.6797 52.3047 41.8751 59.1797 63.9844 89.5313C78.6329 109.688 90.6642 126.328 90.7032 126.563C90.8595 127.188 87.5782 129.531 87.1485 129.063C85.2735 126.992 32.7344 54.2578 31.6016 52.1485C30.7422 50.586 29.6094 48.2031 29.1016 46.9141L28.2032 44.5313L29.0235 45C29.4922 45.2344 31.5625 47.1094 33.5938 49.1797ZM87.8907 51.0157C89.1017 52.3047 90.4688 53.9453 90.9376 54.7266C93.1642 58.3985 94.5313 65.1954 94.5313 72.6954C94.5313 79.2969 95.2345 86.7188 96.0938 89.5313C97.3438 93.5548 99.4532 96.6407 104.609 101.914C110.078 107.5 111.25 109.375 112.813 115.195C113.633 118.359 113.789 119.844 113.828 124.609C113.867 131.25 113.359 133.281 110.899 136.094C109.492 137.656 105.899 140.625 105.352 140.625C105.234 140.625 102.969 137.695 100.352 134.102L95.586 127.578L96.8751 126.602C99.8829 124.336 100.508 123.633 100.234 122.774C99.6876 121.094 98.4376 121.289 95.6642 123.477C94.8829 124.102 94.0626 124.609 93.8282 124.609C93.5938 124.609 89.2188 118.828 84.0235 111.758L74.6485 98.8673L78.3204 74.1407C80.3516 60.5469 82.1095 48.75 82.2657 47.9688L82.5001 46.4844L84.1017 47.6172C85.0001 48.2422 86.7188 49.7656 87.8907 51.0157ZM49.4923 82.8516C60.8594 98.3985 63.2813 101.914 63.1251 102.734C63.0079 103.281 61.9141 110.391 60.7032 118.555C59.4923 126.719 58.4766 133.438 58.4376 133.477C58.3985 133.516 57.1094 133.359 55.5469 133.125C52.5391 132.695 51.5626 132.969 51.5626 134.375C51.5626 135.43 52.3438 135.859 55.0391 136.289C56.4063 136.524 57.6173 136.797 57.7344 136.914C57.9298 137.109 56.4844 148.164 55.9766 150.313C55.7032 151.485 54.2969 151.758 51.4454 151.25C48.2813 150.664 46.3672 149.258 45.0782 146.602C44.0626 144.57 44.0235 144.336 44.2579 139.727C44.4141 136.445 44.961 132.617 46.0547 127.344C49.6485 110 49.6876 106.367 46.4454 100.938C45.7032 99.6485 42.1094 95.586 38.0469 91.4063C29.2579 82.3438 28.3204 80.7422 28.3204 75.1954C28.3594 71.1719 29.2188 68.75 31.3672 66.4454C32.7735 64.961 34.7657 63.6329 35.3126 63.7891C35.5469 63.8672 41.9141 72.4219 49.4923 82.8516ZM67.9298 108.086C68.8282 109.336 69.5313 110.781 69.5313 111.328C69.4923 112.695 66.211 134.297 65.9766 134.531C65.7813 134.727 62.1876 134.18 61.9141 133.906C61.6016 133.633 65.7423 105.859 66.0938 105.859C66.211 105.859 67.0704 106.875 67.9298 108.086ZM79.1016 123.359C82.2657 127.734 84.7267 131.445 84.5313 131.602C84.336 131.758 83.2423 132.539 82.1485 133.359C80.0782 134.805 79.6485 135.742 80.547 136.641C81.3282 137.422 82.1876 137.188 84.5704 135.508C86.3282 134.219 86.8751 133.984 87.1485 134.414C87.3048 134.727 89.3751 137.578 91.7579 140.82L96.0548 146.641L94.7267 148.086C92.2657 150.82 91.7188 152.5 90.8204 160C90.5079 162.813 89.961 165.899 89.6485 166.836C88.3204 170.547 83.9454 173.242 80.6641 172.305C77.0313 171.328 72.1485 166.836 68.1251 160.781L65.9376 157.5L67.3438 148.008C68.1251 142.813 68.8282 138.477 68.8673 138.399C68.9454 138.359 70.0391 138.477 71.3282 138.672C74.5313 139.219 74.922 139.18 75.3907 138.281C76.0938 136.992 75.2735 136.055 73.1641 135.781C72.1485 135.625 70.8204 135.43 70.2735 135.313L69.2579 135.117L70.3516 127.813C70.9766 123.789 71.6798 119.141 71.9141 117.461C72.2657 115 72.461 114.492 72.8516 114.922C73.086 115.195 75.8985 118.984 79.1016 123.359Z" fill="gray"/>
<path d="M48.3203 45.3515C47.8906 45.9375 47.8125 46.4844 48.0468 47.3047C48.3593 48.3594 48.3203 48.4765 47.2656 48.7109C45.8203 48.9844 45.1953 49.6875 45.3906 50.8594C45.5078 51.6406 45.7031 51.7578 47.3046 51.7187C48.9453 51.7187 49.1406 51.7969 49.4531 52.8906C50.2734 55.5469 52.6171 55.1953 52.4218 52.4219C52.3437 50.9375 52.4218 50.8203 53.6718 50.3906C55.1952 49.8828 55.664 49.1016 55.039 47.9687C54.6874 47.3047 54.3749 47.2265 52.8906 47.4609C51.4062 47.6562 51.1718 47.6172 51.1718 46.9922C51.1718 46.0156 50.0781 44.5312 49.414 44.5312C49.1015 44.5312 48.6328 44.8828 48.3203 45.3515Z" fill="gray"/>
<path d="M85.1563 93.1251C84.9219 93.4376 84.7656 94.375 84.8438 95.1563C84.9219 96.4844 84.8438 96.6016 83.5938 97.0313C82.4219 97.3828 82.2266 97.6563 82.2266 98.6328C82.2266 99.7656 82.2656 99.8047 84.0625 99.7656C85.7422 99.7656 85.8985 99.8438 86.211 100.898C86.9531 103.594 89.336 103.242 89.1407 100.469C89.0625 98.9844 89.1407 98.8672 90.2344 98.6328C91.7188 98.3203 92.3829 97.1875 91.7969 96.0547C91.4454 95.4297 91.0547 95.2735 89.7266 95.3907C88.3594 95.5079 88.086 95.3907 87.9688 94.7266C87.7735 93.7501 86.7578 92.5782 86.1328 92.5782C85.8594 92.5782 85.4297 92.8516 85.1563 93.1251Z" fill="gray"/>
<path d="M64.922 31.4844C63.7892 32.2656 63.7501 34.4531 64.8438 35.5469C66.5235 37.2266 69.1406 35.9375 69.1406 33.4375C69.1406 31.9531 68.0469 30.8594 66.6016 30.8594C66.1719 30.8594 65.3907 31.1328 64.922 31.4844Z" fill="gray"/>
<path d="M103.945 83.0469C102.93 84.3359 102.93 85.1953 103.828 86.25C104.961 87.6172 106.446 87.7344 107.578 86.5625C108.789 85.3906 108.867 83.8672 107.813 82.8125C106.68 81.6797 104.922 81.7969 103.945 83.0469Z" fill="gray"/>
<path d="M31.4453 102.578C31.0156 103.008 30.8984 103.594 31.0937 104.531C31.2891 105.586 31.2109 105.898 30.625 106.094C29.1016 106.562 28.7109 106.953 28.7109 108.047C28.7109 109.141 28.75 109.18 30.5859 109.102C32.0703 109.062 32.4219 109.18 32.4219 109.727C32.4219 110.625 33.5156 112.109 34.1797 112.109C35.1953 112.109 35.8984 110.977 35.6641 109.648C35.5078 108.516 35.5859 108.32 36.7969 107.812C37.8516 107.344 38.0859 106.992 38.0859 106.055C38.0859 104.922 38.0469 104.883 36.25 104.961C34.7266 105 34.375 104.883 34.375 104.336C34.375 103.438 33.2812 101.953 32.6172 101.953C32.3437 101.953 31.7969 102.227 31.4453 102.578Z" fill="gray"/>
<path d="M119.258 152.539C119.141 152.891 119.141 153.75 119.258 154.453C119.453 155.664 119.375 155.781 118.281 156.094C115.547 156.875 115.859 159.258 118.672 159.063C120.156 158.984 120.273 159.063 120.703 160.313C121.172 161.758 122.266 162.305 123.281 161.524C123.789 161.172 123.906 160.703 123.711 159.531C123.477 158.047 123.516 157.969 124.688 157.617C126.484 157.07 126.992 156.016 125.859 155.078C125.195 154.531 124.727 154.414 123.828 154.688C122.774 155 122.617 154.922 122.422 153.984C122.266 153.398 121.992 152.695 121.758 152.422C121.25 151.758 119.57 151.836 119.258 152.539Z" fill="gray"/>
<path d="M108.086 162.031C107.227 163.008 107.266 164.961 108.125 165.742C109.102 166.602 111.055 166.563 111.836 165.703C112.695 164.727 112.656 162.773 111.797 161.992C110.82 161.133 108.867 161.172 108.086 162.031Z" fill="gray"/>
<path d="M50.2345 174.844C50.0783 175.195 50.0783 176.055 50.1955 176.719C50.4299 177.852 50.3517 177.969 49.1799 178.32C47.4221 178.867 46.9143 179.805 47.8127 180.82C48.3986 181.445 48.8674 181.602 49.9611 181.406C51.2892 181.211 51.4064 181.25 51.758 182.5C52.0705 183.594 52.3439 183.789 53.3205 183.789C54.4533 183.789 54.4923 183.75 54.4533 181.953C54.4533 180.195 54.4923 180.117 55.7423 179.883C56.7189 179.727 57.0705 179.414 57.2658 178.633C57.6173 177.305 56.6408 176.562 54.883 176.836C53.7111 177.031 53.5548 176.953 53.1252 175.625C52.7345 174.453 52.5002 174.219 51.5627 174.219C50.8986 174.219 50.3908 174.492 50.2345 174.844Z" fill="gray"/>
<path d="M130.664 85.7422C127.773 86.7578 125.391 90.1953 125.391 93.3594C125.391 96.9532 128.164 100.391 131.68 101.172C137.695 102.539 142.774 97.4611 141.406 91.4454C141.055 89.8438 140.547 88.9844 139.258 87.6562C136.836 85.2343 133.906 84.6093 130.664 85.7422Z" fill="gray"/>
</svg>
